<?xml version="1.0" encoding="utf-8"?>
<svg version="1.1" id="kvt" xmlns="http://www.w3.org/2000/svg" xmlns:xlink="http://www.w3.org/1999/xlink" x="0px" y="0px"
	 viewBox="0 0 169 81" enable-background="new 0 0 169 81" xml:space="preserve">
<g>
	<g>
		<path fill="#E6EAED" d="M68.736,17.495c1.072,0,1.95,0.899,1.95,1.995v11.234c0,1.1,0.716,1.997,1.592,1.997
			c0.875,0,2.089-0.741,2.694-1.644l8.02-11.935c0.608-0.907,1.985-1.647,3.059-1.647h8.905c1.075,0,1.44,0.729,0.812,1.621
			l-11.69,16.631c-0.625,0.893-0.611,2.342,0.035,3.218l12.788,17.418c0.644,0.879,0.293,1.596-0.782,1.596h-9.23
			c-1.072,0-2.462-0.731-3.086-1.623l-8.799-12.594c-0.625-0.895-1.851-1.623-2.727-1.623c-0.876,0-1.592,0.895-1.592,1.995v11.85
			c0,1.098-0.878,1.995-1.95,1.995h-6.693c-1.074,0-1.952-0.898-1.952-1.995V19.49c0-1.096,0.878-1.995,1.952-1.995H68.736z"/>
		<path fill="#E6EAED" d="M101.638,57.98c-1.075,0-1.955-0.898-1.955-1.995V19.49c0-1.096,0.88-1.995,1.955-1.995h16.955
			c1.075,0,2.832,0.043,3.905,0.099c0,0,3.244,0.165,5.033,0.692c1.789,0.527,3.16,1.546,4.118,3.054
			c0.955,1.512,1.435,3.68,1.435,6.508c0,1.892-0.166,3.45-0.496,4.683c-0.328,1.237-0.952,2.25-1.873,3.043
			c-0.918,0.794-2.224,1.332-3.915,1.614l0,0c0,0.237,0.866,0.581,1.929,0.758c0,0,1.386,0.231,2.402,1.001
			c1.014,0.77,1.699,1.777,2.056,3.027c0.353,1.247,0.534,2.822,0.534,4.718c0,3.194-0.48,5.606-1.435,7.241
			c-0.957,1.635-2.341,2.722-4.151,3.25c-1.809,0.533-4.269,0.797-7.38,0.797H101.638z M112.234,26.384
			c-1.075,0-1.95,0.898-1.95,1.996v3.313c0,1.096,0.875,1.997,1.95,1.997h3.67c1.075,0,2.832-0.037,3.907-0.087
			c0,0,0.309-0.014,0.93-0.216c0.62-0.199,1.056-0.573,1.31-1.113c0.251-0.543,0.379-1.359,0.379-2.453
			c0-1.284-0.217-2.179-0.648-2.682c-0.433-0.504-1.323-0.755-2.665-0.755H112.234z M112.234,41.172c-1.075,0-1.95,0.896-1.95,1.995
			v3.929c0,1.097,0.875,1.995,1.95,1.995h4.035c1.075,0,2.83-0.046,3.905-0.103c0,0,0.171-0.012,0.871-0.237
			c0.694-0.229,1.208-0.638,1.533-1.232c0.325-0.591,0.486-1.431,0.486-2.52c0-1.606-0.318-2.647-0.961-3.119
			c-0.644-0.473-1.864-0.709-3.661-0.709H112.234z"/>
		<path fill="#E6EAED" d="M158.247,26.911c-1.077,0-1.955,0.899-1.955,1.998v27.076c0,1.098-0.88,1.995-1.955,1.995h-6.69
			c-1.075,0-1.952-0.898-1.952-1.995V28.909c0-1.099-0.88-1.998-1.955-1.998h-6.208c-1.073,0-1.954-0.898-1.954-1.995V19.49
			c0-1.096,0.88-1.995,1.954-1.995h27.489c1.077,0,1.955,0.899,1.955,1.995v5.426c0,1.098-0.878,1.995-1.955,1.995H158.247z"/>
	</g>
	<path fill="#E6EAED" d="M51.832,17.495c-0.981,0-2.614,0-3.63,0H3.679c-1.017,0-1.849,0.85-1.849,1.889V57.62
		c0,1.038,0.663,2.402,1.472,3.033L26.25,78.529c0.81,0.628,2.132,0.628,2.942,0l22.951-17.876c0.808-0.631,1.47-1.995,1.47-3.033
		V19.384C53.614,18.345,52.811,17.495,51.832,17.495z M8.96,26.66c0-1.038,0.832-1.886,1.851-1.886h10.213
		c1.017,0,1.633,0.819,1.368,1.821l-3.817,14.475c-0.265,1.002-0.689,2.61-0.944,3.574c-0.253,0.963,0.34,1.973,1.325,2.247
		l10.167,2.83c0.981,0.274,1.542,1.312,1.25,2.303l-4.406,14.909c-0.292,0.99-1.194,1.29-2.002,0.658L10.431,57.055
		C9.623,56.424,8.96,55.06,8.96,54.022V26.66z M46.481,54.022c0,1.038-0.658,2.402-1.468,3.033l-9.805,7.632
		c-0.808,0.631-1.229,0.334-0.934-0.661l5.038-17.056c0.295-0.994-0.271-2.031-1.25-2.303L27.685,41.78
		c-0.979-0.272-1.566-1.317-1.304-2.32l3.397-12.865c0.265-1.002,1.313-1.821,2.327-1.821h12.529c1.016,0,1.848,0.848,1.848,1.886
		V54.022z"/>
	<path fill="#E6EAED" d="M47.722,1.302c-1.035,0-1.877,0.954-1.877,2.124v1.129c0,1.168-0.843,2.123-1.875,2.123h-8.777
		c-1.032,0-1.877-0.955-1.877-2.123V3.426c0-1.171-0.845-2.124-1.877-2.124h-7.263c-1.031,0-1.877,0.954-1.877,2.124v1.129
		c0,1.168-0.842,2.123-1.875,2.123H11.86c-1.03,0-1.875-0.955-1.875-2.123V3.426c0-1.171-0.843-2.124-1.876-2.124H3.666
		c-1.033,0-1.875,0.954-1.875,2.124v8.707c0,1.167,0.842,2.124,1.875,2.124H51.76c1.032,0,1.875-0.957,1.875-2.124V3.426
		c0-1.171-0.843-2.124-1.875-2.124H47.722z"/>
</g>
</svg>
